<?xml version="1.0" encoding="iso-8859-1"?>
<!-- Generator: Adobe Illustrator 19.0.0, SVG Export Plug-In . SVG Version: 6.00 Build 0)  -->
<svg version="1.1" id="Capa_1" xmlns="http://www.w3.org/2000/svg" xmlns:xlink="http://www.w3.org/1999/xlink" x="0px" y="0px"
	 viewBox="0 0 512 512" style="enable-background:new 0 0 512 512;" xml:space="preserve">
<path style="fill:#D0F0FE;" d="M264.676,0H87.432c-25.441,0-46.14,20.698-46.14,46.139v326.572c0,25.441,20.698,46.14,46.14,46.14
	h177.244c25.441,0,46.139-20.698,46.139-46.14V46.139C310.815,20.698,290.117,0,264.676,0z"/>
<path style="fill:#A6D3E8;" d="M264.676,0h-22.332c19.03,0,34.512,20.698,34.512,46.139v326.572c0,25.441-15.482,46.14-34.512,46.14
	h22.332c25.441,0,46.139-20.698,46.139-46.14V46.139C310.815,20.698,290.117,0,264.676,0z"/>
<path style="fill:#E36F91;" d="M99.822,208.837l57.592-57.593c13.61-13.61,35.685-13.61,49.295,0s13.61,35.685,0,49.294
	l-57.593,57.593c-13.61,13.61-35.685,13.61-49.294,0c-6.811-6.811-10.199-15.729-10.21-24.647
	C89.623,224.566,93.011,215.648,99.822,208.837z"/>
<path style="fill:#FFFFFF;" d="M128.618,180.041l28.796-28.796c13.61-13.61,35.685-13.61,49.295,0s13.61,35.685,0,49.294
	l-28.796,28.796L128.618,180.041z"/>
<path style="fill:#747693;" d="M111.538,0v23.83c0,14.666,11.889,26.556,26.556,26.556h75.92c14.666,0,26.556-11.889,26.556-26.556
	V0H111.538z"/>
<path style="fill:#2B2F52;" d="M219.976,384.858h-87.844c-4.143,0-7.5-3.358-7.5-7.5s3.358-7.5,7.5-7.5h87.844
	c4.143,0,7.5,3.358,7.5,7.5S224.118,384.858,219.976,384.858z"/>
<path style="fill:#50D399;" d="M227.163,199.407c-21.072,0-38.216,17.144-38.216,38.216s17.144,38.215,38.216,38.215
	s38.216-17.144,38.216-38.215C265.379,216.551,248.235,199.407,227.163,199.407z"/>
<path style="fill:#32A873;" d="M257.879,245.124h-61.432c-4.143,0-7.5-3.358-7.5-7.5s3.357-7.5,7.5-7.5h61.432
	c4.143,0,7.5,3.358,7.5,7.5C265.379,241.766,262.022,245.124,257.879,245.124z"/>
<path style="fill:#FFD2C0;" d="M439.914,275.917c-8.378,0-15.984,3.362-21.542,8.81c-5.592-7.803-14.735-12.897-25.046-12.897
	c-8.553,0-16.303,3.505-21.888,9.154c-5.619-7.535-14.6-12.423-24.7-12.423c-5.77,0-11.173,1.595-15.794,4.367v-66.834
	c0-16.98-13.814-30.794-30.794-30.794c-16.979,0-30.794,13.814-30.794,30.794v144.369l-13.328-13.328
	c-6.196-6.196-14.434-9.609-23.198-9.609c-8.763,0-17.001,3.413-23.197,9.609s-9.608,14.435-9.608,23.197
	c0,8.763,3.412,17.001,9.608,23.198l83.018,83.017V504.5c0,4.142,3.357,7.5,7.5,7.5h163.058c4.143,0,7.5-3.358,7.5-7.5V306.71
	C470.708,289.73,456.894,275.917,439.914,275.917z"/>
<path style="fill:#EAA28F;" d="M439.914,275.917c-5.68,0-11.004,1.549-15.577,4.243c7.99,5.357,13.367,15.25,13.367,26.551V504.5
	c0,4.142-2.948,7.5-6.585,7.5h32.089c4.143,0,7.5-3.358,7.5-7.5V306.71C470.708,289.73,456.894,275.917,439.914,275.917z"/>
<g>
</g>
<g>
</g>
<g>
</g>
<g>
</g>
<g>
</g>
<g>
</g>
<g>
</g>
<g>
</g>
<g>
</g>
<g>
</g>
<g>
</g>
<g>
</g>
<g>
</g>
<g>
</g>
<g>
</g>
</svg>
